/* XPM */
static char *d6f3cadf379641e5a2569d029955c99ewVRuCtmCiWXfKZhS[] = {
/* columns rows colors chars-per-pixel */
"64 64 232 2 ",
"   c #180D07",
".  c #1F1109",
"X  c #23130B",
"o  c #2D190E",
"O  c #321A0D",
"+  c #391B0E",
"@  c #261711",
"#  c #361D11",
"$  c #3C2215",
"%  c #35231F",
"&  c #1C1D2F",
"*  c #1A1D30",
"=  c #221E2D",
"-  c #2B222B",
";  c #26212C",
":  c #3B2623",
">  c #34252A",
",  c #392729",
"<  c #3B2A2B",
"1  c #372625",
"2  c #282230",
"3  c #362A32",
"4  c #3A2C33",
"5  c #312731",
"6  c #3E3132",
"7  c #4A230D",
"8  c #56290F",
"9  c #452413",
"0  c #4B2511",
"q  c #45291D",
"w  c #4D2C1C",
"e  c #492816",
"r  c #552A13",
"t  c #5D2D15",
"y  c #532E1C",
"u  c #5A2E1A",
"i  c #512613",
"p  c #5E3016",
"a  c #55311E",
"s  c #5C321D",
"d  c #5E391D",
"f  c #48301F",
"g  c #7D390F",
"h  c #7D370F",
"j  c #622D16",
"k  c #622F1A",
"l  c #6A2E1B",
"z  c #643116",
"x  c #6C3415",
"c  c #62331B",
"v  c #6A341A",
"b  c #64391D",
"n  c #6B3A19",
"m  c #693917",
"M  c #723614",
"N  c #793712",
"B  c #753814",
"V  c #7C3A12",
"C  c #743619",
"Z  c #78371A",
"A  c #733B1C",
"S  c #7B3D1B",
"D  c #63300E",
"F  c #442B24",
"G  c #4C2E22",
"H  c #432D29",
"J  c #412721",
"K  c #532F22",
"L  c #5B2F20",
"P  c #4D3223",
"I  c #493229",
"U  c #543121",
"Y  c #5B3322",
"T  c #5D3925",
"R  c #53362A",
"E  c #543C2B",
"W  c #5D3B2A",
"Q  c #573929",
"!  c #432F30",
"~  c #443135",
"^  c #46353A",
"/  c #4A3431",
"(  c #553730",
")  c #633521",
"_  c #6C3721",
"`  c #643B23",
"'  c #6C3C23",
"]  c #633E2B",
"[  c #6A3E2C",
"{  c #723A22",
"}  c #7B3E23",
"|  c #713E29",
" . c #431B10",
".. c #79411C",
"X. c #6F441F",
"o. c #5B412D",
"O. c #5A4738",
"+. c #6C4123",
"@. c #64422B",
"#. c #6C422B",
"$. c #664026",
"%. c #734325",
"&. c #7C4524",
"*. c #7C4A26",
"=. c #75432B",
"-. c #7B452B",
";. c #7D4A2A",
":. c #754829",
">. c #6B4332",
",. c #644C3C",
"<. c #6D4C3C",
"1. c #664734",
"2. c #744A32",
"3. c #7D4B32",
"4. c #714836",
"5. c #6C523C",
"6. c #7D533B",
"7. c #785438",
"8. c #5E4943",
"9. c #634E41",
"0. c #6E5644",
"q. c #775945",
"w. c #625C53",
"e. c #7C644B",
"r. c #7B6A57",
"t. c #7F786B",
"y. c #823B0F",
"u. c #833D12",
"i. c #813E1A",
"p. c #854114",
"a. c #84431B",
"s. c #89461B",
"d. c #894518",
"f. c #914D1E",
"g. c #834A25",
"h. c #834C2A",
"j. c #844926",
"k. c #8A502D",
"l. c #98552E",
"z. c #965529",
"x. c #824D34",
"c. c #824F3A",
"v. c #845135",
"b. c #84533B",
"n. c #895939",
"m. c #995530",
"M. c #9A5A35",
"N. c #9A5C3B",
"B. c #945B35",
"V. c #904F25",
"C. c #A1592E",
"Z. c #A35D33",
"A. c #9B6139",
"S. c #89603D",
"D. c #A5623B",
"F. c #885A44",
"G. c #945F42",
"H. c #886649",
"J. c #9C6243",
"K. c #9D6648",
"L. c #936B4B",
"P. c #956649",
"I. c #97734C",
"U. c #846C52",
"Y. c #8A6C55",
"T. c #8B7455",
"R. c #8C7756",
"E. c #9A7455",
"W. c #937C5A",
"Q. c #987657",
"!. c #976D53",
"~. c #AA6944",
"^. c #A76A48",
"/. c #A57247",
"(. c #A77B57",
"). c #947865",
"_. c #A07E6B",
"`. c #98835E",
"'. c #96815C",
"]. c #A8835C",
"[. c #B6845A",
"{. c #AF814E",
"}. c #9B8561",
"|. c #9A856A",
" X c #9B8A77",
".X c #AB8461",
"XX c #AB8A64",
"oX c #A68868",
"OX c #B58C67",
"+X c #B9966B",
"@X c #AC9378",
"#X c #B39574",
"$X c #B2957B",
"%X c #A98F7A",
"&X c #C2976E",
"*X c #C3A472",
"=X c #C8A979",
"-X c #CFB17A",
";X c #D7B97F",
":X c #D2B47C",
">X c #9C9384",
",X c #AE9B89",
"<X c #B49B85",
"1X c #BBA48B",
"2X c #BEA688",
"3X c #B7A792",
"4X c #C3A98C",
"5X c #DABD82",
"6X c #DCB78F",
"7X c #C5AB91",
"8X c #CBB395",
"9X c #D2BC9A",
"0X c #D6B896",
"qX c #D1AF8B",
"wX c #D4BDA3",
"eX c #CABBA4",
"rX c #DEC285",
"tX c #DAC59E",
"yX c #D7C29D",
"uX c #E0C486",
"iX c #E3C39E",
"pX c #DEC9A1",
"aX c #DBC5A9",
"sX c #D3C7B5",
"dX c #E2CDA3",
"fX c #E7CAA7",
"gX c #E5D1A6",
"hX c #E4D3BB",
"jX c #E0CCB4",
"kX c #E6D9C3",
"lX c #F6EBD6",
"zX c #FAF2DF",
/* pixels */
"uXuXuXuXuXuXuXuXuXrXrX5XrX5X5XrX5X5X5X5X;X;X5X;X:X:X:X:X-X-X-X-X=X=X=X=X*X*X*X*X*X*X+X&X+X+X+X+X+XXXOXXXXXXX].]..X`.Q.].Q.Q.Q.E.",
"* * * * * * * * * * * & * * * & * * & * & & * * * * * * * & * * * * & & & * * & * * * * * * * * * * * & & & * * & * * * * * * * ",
"n S &.' - b S i.d.S S ..H < h.j.j.[ [ #.=.x.<.3 7.2.;.;.4.4.P.F.3 ^.b.>.2.;.;.2.1.= c.3.2.#.] &.j.h.=.& Y X.V i.d.S S G > %.S Z ",
"k x Z { < v x V y.N x m Q F x M M s w a Y _ F.( y s x v s ` &.^.~ /.[ #.b x b s ) 3 c.) Y U y c M M n - ' z x h y.N v a H A C v ",
"F.x A ' H c M V (.N x m W : v M M 7.7.K L ) P.K a s x I.#.+.&.K.^ ~.$.;.H.S.m s Y ! 3.) s a H.x M v c = ` z M B.I.N v y H n Z -.",
"1.C Z ' H p x N x M x j @.1 c x M a Q s ) l P.( U p n s Y +.&.^.^ ^.$.*.d p m s L ! 3.) Y U E m M z c * b z x M M N x y H { Z +.",
"z x C { G c x h y.N x t @.: p x C s L L K _ F.L w d n n d +.*.K.^ /.` ..d n m a Y ( 3.) K s a c M p p ; ' x x u.u.N x K H A Z v ",
"j M C ' G s C V p.N x t @.F p m x u L ) H L F.) U p n n d $.*.J.^ ~.+.X.c n m s c ( >.c F Y a v M a s - b z M V p.N x K G _ Z x ",
"j C C ' G k M h u.N x D ] w p c v p s Y P Y F.) U p n n d b g.K.^ ~.%.+.d x m s Y ( >.) F Y a v x u u 1 n z M V u.N x K P A C x ",
"u C C ` P k x V A N x p T w c p v s s U L Y q._ a d n m s s g.J.^ ~.+.s c n m s s W [ ) U s a v c c j 1 ` z x C p.N x y G _ C l ",
"w k C Y K c x V b N x p T w c u x s d Y Y K b._ w d n n a a h.A.^ ~.%.a d n b d L ] [ Y Y s a v v u z 1 b j x x A B x y G ) Z c ",
"r K C R U s C V b N x j T y c u M s d Y K K c._ U s m n d d h.J.^ D.%.a b n p s Y [ [ K a d a v v u x : b z M v n V x y G Y Z u ",
"u K Z K U p x y.b M x p W w z p M p d Y K K c._ F a d n s d h.A.^ D...a b X.w a u [ | K K ) a v x K x : b z z n ' N x y I Y C u ",
"| G { K G c x V n z x z T w c s x s d Y K K x.{ : s s n s $.g.A.~ D.X.T z m P a Y | [ K K Y s v B y c : c z t C ' N x y F Y _ L ",
"@X] } L G c M h A z v p Y w c c M s ` Y K G x.n : s b n s ` h.N.~ D.%.T d n s a K | | K Y s U c B y z : c m s V Z N x y F ) } F.",
"@X^._ ) F c x g p.c z z U y t c M u b Y L G x.A F a n n d b g.N.~ D.*.Y c n m w K } _ K s Y s v B y c J c z u Z p.N l u F ) | +X",
"].T 9 Y F c x V a.p p z a y c c N u p Y ) G -.{ G P n n p T h.M.! D.*.U c n b G L | ) R Y s a v M u c J z z z x p.N x y F u + L.",
"#.L Z Y R v Z i.s.+.%.[ @.T #.{ &.] @.] ] ( x.{ y G b m s d h.M.~ A.*.a b n s F Y -.[ W ] ] @.%.&.] [ R [ +...[ s...C b R b S G ",
"l E.S } j.XXV.l.A.].(.[.+X#X*XqX0X8X4XjXkXsX4X7XY.R b n s d k.M.! Z.*.U p n c o._.8X3XkXhXaX2X0XqXqX=XOXOX[.(.].M.z.z.I.a.} } P.",
") [ x C x @.....*.@.S.L.!.,.T.|.|.r.0.>X>Xt.O.Y.@.U m n s Y k.B.~ C.*.a b n b R 0.Y.O.>X>X XO. X|.|.e.q.I.S.6.#.;...X.` C x v ` ",
"H.X o o @ + 9 7 8 9 7 0 9 9 r r z r a ) u K { { a G n n d Y h.m.! C.*.a c n b : L { ) Y ) s w p j t r $ 9 0 i 9 i 7 # O @ o o H ",
"<X.X{ L F c x h y.a x z a y x m M s a ` L K _ { w G n n s Y k.l.! C.;.U b n v F L _ ) ) Y d a v x x c w t z M Y u.N x u H l *.4X",
"(.H.Y u J c M h p.u x p r w x v M s s Y L L { _ w P n m d Y k.l.! C.;.a s n n J ) { ) L ) b y z x M c w u z M Y y.N x u F c T Y.",
"Y $ x Y J p M h y.u x p y y v v x p a s K l _ { P P n m d a k.l.! M.;.w b n v F L _ _ K Y s y m x v z w p z x p u.N v y F v v # ",
"r u C Y F c x V y.u x j a y p v M s a a L ) _ { G K x n d Y h.l.! C.:.a c n n F Y { n K Y u y v M p p w u z x p y.N v a J b Z K ",
"u l C s J p x u.y.u x p r w p x M p y P L Y _ { G K n n s s h.l.H C.+.s b m m G L C _ L K K y c M s u w u z M k y.N x u J v Z u ",
"u v C c F k x u.u.t x j y y s B M c a K ) L _ { w a n n s T ;.m.~ M.' d c n c w Y { Y L Y K Y x M s u w u z x k u.N x a F v Z k ",
"u C C u F k C s.u.z x z y w p M M b U a ) L ) _ a a n n Y ) &.l.H Z.' ` c m b a L { Y ) s y ` v M c p w p z M x u.S v p F v Z k ",
"u l C u G k x i.i.x x D r w p M M R U Y s Y ) { ).6.L.b.d T ;.l.! C.[ ` b H.n.F.q.{ Y ) s a W G B v p w a z M x i.Z x s G l C c ",
"t k C K y k x u.d.M x z r y p M M a a ` c L _ x.#XI.XXoX$.T *.l.! C.b ] S.@XI.}.(.' L Y s [ Y p M v u w p z x i.u.N x u G k Z k ",
"k K C K K c x u.i.N x p a y p M M s a ` ) Y _ (.'.}.@XI.Q.Y h.m.! C.' T oXI.OX|..Xn.) Y Y %.a x M v k w p c M S p.N x u G k Z u ",
"j G C u y p x V S N x j r y m x M u s Y c K ) 7.#X%X,XW.W.q.j.m.! C.#.Y.H.|.|.3XQ.) v K Y ' w v M x z w r z x V p.N x u G ) C u ",
"u K C L G c x V V z x p y y c M M p a s k L l ] @X].+XoXO.,Xn.m.! Z.E. X0.#X{.oX!.y l K L b a v M x p w u z t N p.N x y F c v l ",
"y k C u J s M u.y.z x p r w p x M s a s L u l _ O.$.5.1.# 0.A.m.I C.(.< w 5.2.o.R l j L c s a v M x p w y m y y.p.V x K F v v u ",
"w l C u F c x p.g v z p a y s x M Y K s )  ._ { % d x n Y q.B.m.! C.(.( d n m s K { l  .Y s Y v M v s w p z u N u.N x y J v Z L ",
"y C C u G c x u.g x p z r w p x M b L K u O } { P a n v K $Xv.m.! C.P.|.p n d w K { _ X Y y Y c M c p w r z j N u.V v y G c C l ",
"t C C y G c x p.y.z x z y r p m M s a s u . ) c.y w n n  X3X#.l.! C.W kXH.n s G ] F.0 @ s a a m M c c w u z x x u.V x y G c Z l ",
"k l C K w p x V g x x p y r c v M s s K ) X  .3.7.q.P.#XyX/ %.m.! C.w w.9X.XH.0.b.v O + Y a s v M z c w u z x x u.N x s G c Z l ",
"j L C K w c v h V N x z a y z v M p ` a c q . e p v.I.7.@ q ;.l.! C.` O : H.J.*.y + X c s Y a v M p c w u z x N u.N x u K c x c ",
"k l v u a c x h p.N x p r w z z x s ` Y s Y y X       X y U *.l.! C.+.a $ .       O K ) s Y a m M c z w t z x g a.N x u K c v k ",
"j c ) k G c M h s.x z p y y m x M s +.Y s Y ' { q w m n s P g.l.! C.T U d n p e a { Y ) s Y Y v N z u w u z v B d.N x y y ) v k ",
"j k v c G c x h d.x j z r w v x M s +.Y s U _ { q s x n a H *.l.! C.W a s n b a U A L ) s b T v M v c w u z z C s.N x a y v C u ",
"j k C L w c x h s.c z z y y x M M s +.Y ) K { C P a n m a F ;.l.! Z.W a U n n U L { Y ) s ` d v M M c w p z z Z s.N v y K v C L ",
"(.L C Y G k x V d.p z t a w x M M s +.s ) Y { _ w a n n P a ;.M.! C.] a s x b w L { ) ) s T Y v M M z q p z z A s.B v y K v C >.",
").!.h.) y p v N d.z x z a w x M M s X.Y Y Y } _ w a n n a a ;.M.~ D.$.U s n n G Y { ) ) Y ) d c M B c q s z v x s.M x y K _ n.oX",
"$X[.b Y y c m N d.z v p a a x M M u X.Y ) c -.{ P a A n s P h.M.~ C.+.w b n n w Y { { ) s ) s x M M c q p z x x s.x v u u u h.OX",
"E.@.t ) a s z N d.z x j s w M N M s X.Y c ) -.{ P a n n a P h.N.~ D.X.F p n n P ) } | ) Y ) Y v M N z q p m x v p.x x u K c t H.",
"T { } =.#.=.;.k.B.3.v.6.0.<.b.v.x.<.6.>.[ | c.{ q s n n w U h.B.~ D.%.q d n b w u -.=.[ #.1.5.x.v.v.6.8.6.6.k.v.B.3.;.=.#.| } L ",
"j Q.} i.a.I.z.V.M./.{.[.+XOX=X0XiXpX2XkXzXlX1XaX).2.A n P a h.N.~ D.:.: b n b 6.<XaXeXzXlXhX4XgXfX6X#X+X&X(.[.A.z.f.A.h...S k.6.",
"-.# 0 0 e $ 9 e w q f o.o.P o.O.,.O.f ,.,.,.R ] I s n n U a k.A.^ D.:.P b n n a W o.R 9.5.O.I ,.1.1.I E E Q f e e 8 9 9 e 7 7 w ",
"Y.@. .9 $ 9 0 8 D 8 8 8 P e p D x s b a s ) v.{ a p n n a a k.A.^ D.%.w c n m a L | | ) p a a m z m t % y r 8 j D 8 7 $ # 0 7 U.",
"@XwXH._ a p m M d.g M p W y x N x p b Y d ) b._ w d n n s U h.J.^ D.:.U c n b s L [ } b Y ` a x M N z : n j M V p.m m a K ) XX7X",
"P.T y _ P p v M p.N x z W r m N M s d ` L l F._ a d n n d a h.A.^ D.:.U c n n s Y ] | ) Y ' a v M N z 1 b z M u.p.z v u K c Y 7.",
"9 j C n G b v N y.N x t o.w x M x p s s L l F._ a p n n d s k.J.~ ~.:.w c n b p L ] } ) s +.a x M M z 1 ` z M V p.x v y G ' C i ",
"i C C ' G c x V p.N x t o.w x M M b s Y ) ) F._ w d n n s a h.J.^ ~.:.a c n n u L ( x.) s b a m M N z 1 b z M V y.V x K G _ C c ",
"z x C ' I c x i.g N x t @.w m N M n a u ) v F.) U p n n s a h.K.^ ~.:.w b n v u L ( h.) s d b v M M z 1 ` z M h p...x K G { Z x ",
"j C C X.H z x a.g N x p ] q x B M n a s Y b G.( a c x b s s h.K.^ ^.%.U p n b p s ( 3.) k s b m M M z > b z M g y...v y F n Z x ",
"j M C ' H c x p.y.N x z T q x N M X.U s ) c P.L a c n n s K h.K.^ ~.+.U b n b s s / 3.) L y ` v M N z - ' D x y.y...v y H A Z v ",
"j x C { H z x s.p.B x z o.q x S M n U a ) ) P.K y s n X.s U ;.^.^ ~.=.U b n m s ) 4 x.) Y y ' v M B m - ` m M ..d.p.x y H A Z x ",
"E.C C %.: b v a.I.N x m Q F x M M n.q.K c _ F./ a p n I.@.U h.K.^ ~.$.a H.H.n s Y 3 b.) k U Q.n M M v - ` z x k.I.y.x a < { Z 3.",
"#.Z S %.> X.S a.x V M &.P H k.S S T T ` ' 3.6.~ 1.$.%.b ] ] n.P.4 /.2.T s b %.$.<.- n.| ` ` o.b ..j.;.= ` A S M M i.A R < &.S { ",
"- > , - & 5 1 > 1 > > - = & > < 4 3 3 3 3 3 2 & 5 3 4 4 3 4 ! 5 = 6 6 3 3 4 4 3 ; & 5 4 3 3 < < < < - & ; 3 > 1 : 1 > = & > , > ",
"}.}.}.}.}.`.}.`.`.`.`.`.'.}.}.'.'.'.W.'.W.W.'.'.W.W.W.W.W.T.T.T.R.R.T.U.T.U.U.U.U.U.e.U.U.e.e.e.e.e.q.q.q.q.q.q.0.0.0.<.<.,.,.,.",
"gXgXgXgXgXgXgXgXgXgXgXdXgXdXdXdXgXpXdXdXdXpXpXpXtXtXtXtXtXtXtXtXtXwXyX9XyXyX9X9X8X9X9X8X8X8X8X7X7X7X8X3X3X4X1X1X1X<X1X<X<X<X,X<X"
};
