/* XPM */
static char *result[] = {
/* columns rows colors chars-per-pixel */
"64 64 189 2 ",
"   c #2C391E",
".  c #31302C",
"X  c #363531",
"o  c #373830",
"O  c #3B3B35",
"+  c #3D3D3A",
"@  c #403E3B",
"#  c #3A442F",
"$  c #3D4335",
"%  c #3E423B",
"&  c #424D36",
"*  c #42423D",
"=  c #444B3A",
"-  c #484B3F",
";  c #404236",
":  c #445236",
">  c #485337",
",  c #47523B",
"<  c #49543D",
"1  c #4B583C",
"2  c #3F4141",
"3  c #454543",
"4  c #494744",
"5  c #464A44",
"6  c #4A4A45",
"7  c #464949",
"8  c #4C4D4A",
"9  c #454749",
"0  c #504F4B",
"q  c #4C5344",
"w  c #4E5943",
"e  c #4E514C",
"r  c #4F594A",
"t  c #505447",
"y  c #515C45",
"u  c #52524D",
"i  c #535B4C",
"p  c #595D4D",
"a  c #4C4E51",
"s  c #514F50",
"d  c #4E5151",
"f  c #545552",
"g  c #585753",
"h  c #565A54",
"j  c #5A5A55",
"k  c #575559",
"l  c #595758",
"z  c #565A59",
"x  c #5C5D5A",
"c  c #605F5C",
"v  c #4F624B",
"b  c #546444",
"n  c #55624B",
"m  c #59644D",
"M  c #57694C",
"N  c #5B6B4C",
"B  c #566A45",
"V  c #5D734D",
"C  c #566154",
"Z  c #5B6354",
"A  c #5B6C54",
"S  c #576558",
"D  c #5D625C",
"F  c #5D6C5B",
"G  c #5D7354",
"H  c #5E725D",
"J  c #616C55",
"K  c #61635D",
"L  c #626C5C",
"P  c #627457",
"I  c #64725D",
"U  c #647B5A",
"Y  c #697C5F",
"T  c #5D5F6B",
"R  c #5F5D70",
"E  c #605F61",
"W  c #5E6463",
"Q  c #5E6965",
"!  c #5F646A",
"~  c #5E6968",
"^  c #5E7060",
"/  c #5E6170",
"(  c #636563",
")  c #636A65",
"_  c #696B65",
"`  c #62666B",
"'  c #68676F",
"]  c #646C6B",
"[  c #6A6C6C",
"{  c #706F67",
"}  c #706F6F",
"|  c #647363",
" . c #6A7464",
".. c #657965",
"X. c #6A7B63",
"o. c #66716D",
"O. c #6A736D",
"+. c #66786A",
"@. c #6C7A6C",
"#. c #717067",
"$. c #717D64",
"%. c #72746D",
"&. c #737B6D",
"*. c #7B7C6D",
"=. c #636572",
"-. c #656C71",
";. c #6A6D73",
":. c #6D6E79",
">. c #677271",
",. c #6C7373",
"<. c #6E7974",
"1. c #6E7479",
"2. c #6F7979",
"3. c #727574",
"4. c #737A75",
"5. c #7A7C75",
"6. c #71757C",
"7. c #737B7B",
"8. c #7A7D7B",
"9. c #817F6F",
"0. c #6A815B",
"q. c #71845D",
"w. c #6E8268",
"e. c #758561",
"r. c #7A8A65",
"t. c #73836B",
"y. c #7B8D6C",
"u. c #778A64",
"i. c #748273",
"p. c #7B8376",
"a. c #76817B",
"s. c #7B827D",
"d. c #7F897C",
"f. c #7B8876",
"g. c #81906F",
"h. c #838376",
"j. c #828B75",
"k. c #83857C",
"l. c #88877C",
"z. c #848B7C",
"x. c #8A8B7C",
"c. c #888575",
"v. c #839175",
"b. c #8B937E",
"n. c #8D997A",
"m. c #89957A",
"M. c #92907F",
"N. c #919A7D",
"B. c #6E6E80",
"V. c #747681",
"C. c #767B82",
"Z. c #797D82",
"A. c #817F89",
"S. c #778181",
"D. c #7C8382",
"F. c #7E8983",
"G. c #7E828C",
"H. c #828683",
"J. c #848A84",
"K. c #8B8D84",
"L. c #82858A",
"P. c #858B8A",
"I. c #8A8E8A",
"U. c #908F82",
"Y. c #879182",
"T. c #8C9284",
"R. c #8E9982",
"E. c #8D918C",
"W. c #929386",
"Q. c #949A84",
"!. c #9A9C83",
"~. c #92948B",
"^. c #95998B",
"/. c #9A9B8C",
"(. c #8C8E92",
"). c #8D9191",
"_. c #939591",
"`. c #969993",
"'. c #9B9C93",
"]. c #9E9E98",
"[. c #A09E87",
"{. c #A09F93",
"}. c #9FA08D",
"|. c #9EA092",
" X c #A3A28D",
".X c #ABA88F",
"XX c #A2A193",
"oX c #A9A790",
"OX c #A2A298",
/* pixels */
"7 8 d 7 8 4 4 4 ; 4 4 7 8 5 q 8 8 6 q 8 8 4 3 @ O O @ @ @ @ O @ @ 4 8 0 4 4 3 3 $ - 6 6 = * @ @ * 6 8 + + 2 3 5 4 9 3 7 3 3 7 5 ",
"7 x W O.{ { 5.%.%.f 5 r i v n C N Z i 5 9 8 f K %.c.U.l.l.( X 0 W.~././.{.{./.K.1 M p.l.l.j.p.5.x.Q.H.3 f O.2.7.8.D.k.H.D.8.W 9 ",
"`.].|.XX{.{././.E.j  .R.N.n.m.m.u.g.&.7 5.].{.'._.(.I.A.J.3.* ( I.I.L.D.,.s.7.5.,  .T.R.Q.Q.W.J.~._.P.8 4.E.Y.T.T.~.].].`._.F.e ",
"_._.).(.P.L.t.i.7.q %.| +.....H G U @.h 5.I.(.(.A.A.A.} ;.[ q 3.P.P.A.3.>.a.,.) 3 ) 4.s.F.7.@.O.o.4.,.7 @.0.0.a.D.D.D.7.a.2.~ 8 ",
"P.1.1.6.6.:.:.] ) u &.Q | ....I | @.O.6 %.,.Z.Z.V.B.R ' ' _ q [ ,.,.] -.1.,.] Q 8 O.) ] o.,.,.>.~ o.[ 5 @.P ^ a.2.1.1.>.>.o.S a ",
"F.,.C.V.V.V.6.[ _ 8 L H +.i.t.i.@.2.[ 6 _ O.C.V.:.:.' ' ;.' 4 ] ] -.1.:.:.~ Q ` u [ W W >.<.C.1.] ~ ' 3 O.Q o.1.1.:.2.>.>.>.z d ",
"S.-.,.V.V.6.6.} [ 7 F ) O.&.&.<.3.O._ u c ] _ ;.:.' ' ' } c 4 x ~ >.=.:.V.3.] [ 8 z Q Q ~ >.V.,.] ] ( 2 D ] ~ / / / =.;.[ [ h f ",
") W ( ] ' [ [ ( ( 4 j ) _ K D K c c j u 0 x c c l c c c g 8 4 5 z z l h l l g i 3 5 d x x D x D D x h 3 d Q W x k z l c l j a 7 ",
"d e 8 3 4 * 4 4 6 * 0 l h g g g l x g f 4 4 8 0 0 f f u f 8 5 2 2 2 + + + + + % + 2 5 % + + % + 2 2 2 2 3 3 7 8 d a a 8 8 7 a a ",
"^.~.E.d._ * 6 _ A.9.k.I.H.J.J.3.j c _ _ _ { 9.U.E.3.f T s.~.^.`.^./.Q.I.h + S w.T.z.j.H.k.p.W * ] 5.8.8.6.7.p.8.k.W a P.E.^.^.`.",
").).E.P.O.* { ].XX{.{. X.X.X{.K.j H.^.~.W./.`.`.E.9.l I.P.a.2.C.2.2.7.2.( 2 4.w.a.S.J.I.E.E.7.e P.I.I.k.K.E.E.J.D.` 8 P.P.).).).",
"2.7.2.,.` ; [ s.I.s.4.H.L.I.D._ 0 4.2.:.Z.A.P.L.C.' h I.o.>.>.V.1.1.2.,.W 4 4.>.S.S.7.a.D.4.( r w.t.J.7.Z.Z.C.<.>.D 9 P.S.S.C.2.",
"1.:.>.] ( 4 { O.<.7.8.6.X.,.] j $ | ,.1.6.;.:.7.2.g s A.>.>.1.V.2.<.V.<.h 5 o.o.S.G.Z.Z.:.~ W 8 4.a.D.7.V.V.C.7.>.h 7 7.>.>.V.2.",
"1.-.>.,.( 4 [ 7.7.7.3.6.6.[ ) C $  .S 6.V.6.;.3.[ p q 5.>.;.1.V.V.2.1.,.j 3 ] ~ @.2.C.7.,.~ j 5 O.+.>.-.=.R ! =.] h 7 2.>.>.>.1.",
"-.' ;.[ L 4 O.7.3.3.;.3.o.A n i 6 | ) 6.6.[ [ [ [ u w L | :.,.1.V.2.3.) h 5 W G G I O.] o.] p 1 ^ o.] ~ ! T ! ` ' u 9 <.] >.-.;.",
"x x l l u 7 x ( ( ( ( F Z B b : = ) o.[ ' x c j j h w M F D l h h j f u 8 8 e q w i j x j Z i q C h h x h x l j j 7 7 W x z x x ",
"+ + 2 * * 0 4 @ + 3 4 j N N y 1 = 6 u K l g 0 w t C Z A p f z C r q 8 8 a e 8 8 3 3 8 8 8 q q r r 8 4 8 8 8 8 8 9 4 9 8 9 9 4 4 ",
"+ * ( [ 3.8.8.k.h.h.h.4.m N $.p.j.x.M.Q.W.~.~.K O.d.Y.T.~.^.R.f.w.w r L | ) ~ W x n h e q q n S ) x x z x x d f _ [ { _ l 0 9 3 ",
"_ [ `.`.'.'.'.'.`.~.E.p.b P Q.Q.Q.T.W.^.].'.W.f H.E.P.F.7.2.i.w.U w X.v.Y.Q.`.`.`.R.Q.O.r J Q.}.}./.'.'.'.H.g 6.I.K.K.I.^.'.'.].",
"h [ H.H.D.H.H.A.P.H.p.) y P f.k.s.4.| F 3.3.%.7 4...2.7.<.2.i...A , ..H @.a.S.S.a.o.O.( t L ~.E.).I.J.F.D.7.8 5.7.2.7.7.8.Z.L.Z.",
"h } 2.) [ 1.7.7.7.,.) L q I a.7.<.o. .4.O.) ) q &.| ,.2.-.| ) F M , I G ..D.P.G.C.2.>.) u  .z.a.P.D.D.D.C.<.s 3.,.3.D.H.Z.7.7.6.",
"8 ) O.] ,.7.7.V.4.[ Q ( 8 ) 2.<.@.@... .]  ._ l @.] o.o.~ ) ) L M : P H o.7.C.7.,.,.O.( 6 ,.7.7.D.G.7.7.,._ 0 ,.,.D.J.I.L.H.H.8.",
"6 M O.] [ 3.,.3.3.} ] ( 6 x 4.O.| I I _ [ ;._ l ] o.[ _ [ [ _ _ b : Z ^ O.2.6.6.6.;._ c 6 [ ,.1.C.D.7.2.] _ 8 ( ,.4.4.8.H.p.8.%.",
"q q D c x K K D K K K x 8 f K D K Z K L x x l 8 h x x x D j g p < - r D ( ] ( E c x j u 8 D ` ( ( ( W ( ) x 8 l ( ( K K J m m n ",
"= 3 8 3 ; - * - 4 4 0 8 3 e 8 q u u j j x j j 0 4 4 4 4 * 4 0 0 0 0 l f l l f 0 4 6 7 * 6 g s 8 8 u 8 q 0 0 3 2 + 4 * & & & & & ",
"r.j.l.k.4.8 ; %.x.H.8.5.5.p.*.5.u x J.~.`.`.'./._.J.0 0 H./.{.{.'.'.`.'.I.( u u x K c c ' } x u f [ 3.4.8.3._ W z u 6 y $.$.q.q.",
"m.Y.J.J.F.i 3 '.l.k.K.K.T.T.z.z.W %.'.E.E.(.(.J.f.h.c c ].~.`.~.`.I.H.D.H.c l '.}. X X}. XXXXX#.W `.^.`.{.{.].].'.J.6 I T.b.T.T.",
"F.a.S.s.3.h % s.Q Q ` ` ` O...@.x [ s.7.Z.D.7.4.X.#.g K J.P.T.J.8.7.C.s.3.u s H.D.F.J.P.H.d.7.h ( s.a.D.Z.V.,.,.2.] 6 I f.i.p.d.",
"| ] >.o.[ 8 + O.Q Q ~ =.=.o.o.O.c 5.7.<.2.P.J.P.7.[ 0 K J.H.s.4.2.Z.Z.D.3.0 f 8.D.D.F.D.S.a.<.h D i.i.D.D.Z.;.,.,.( u L | H F Q ",
"@.o.| ) [ 0 $ ) o.) :.] ] ,.O._ x 3.2.,.<.a.4.4.O.) u _ 4.O.,.,.6.V.C.7.;.u l 4.2.2.2.2.2.2.,.f W 4.o.1.3.:.-.! ] K 8 ) ..U U X.",
"| _ ] L _ 6 + h O.A v S -.;.o.] j ) <.] ] ] o.O.[ _ u ( ,.O.o.] ,.:.3.;._ 8 ( 4.1.V.1.2.7.1.[ l x 7.o.>.;.;.-.( Q ( 8 D @.I I | ",
"D K J V A - ; q w Z S x ( ( ( ( u j ) D x j f f u u u j D D D c K T K j l 8 x O.,.,.,.;.[ ' ` e f ] ] ] ( ' ` ( ( x * 8 D K C j ",
"X @ ; = ; O O X   $ * - 7 0 7 3 8 l 8 4 4 4 * 7 @ 4 0 6 0 6 4 6 q j x ( D K ( _ h 4 7 8 e f f d 8 8 e f 8 a 8 3 3 2 3 3 7 3 % O ",
"O 7 ( ( _ [ #._ L p 5 7 [ 5.4.4.8.8.7.] 6 7 _ l.U.W.Q.W.W.~.%.t t K.|.}.Q.~.^.^._.x 8 H.J.J.r.Y.J.K.I.I.k d I.~.W.W.^.`.Q.'.Q.k.",
"@ l.]./.^.M.~./.T.k.u r /./.XXXX{.OXOX_.l x '._.I.Z.O.-.;.[ | i t k.7.o.) ] ;.] ) r z E.P.P.F.P.F.F.7.7.a d E.2.8.C.D.D.a.2.a.<.",
"5 &.T.p.4.4.7.8.7.O.8 i J.J.8.Z.Z.H.H.8.c g E.5.4.[ ` ] ` ` ) p t F.7.o.Q ] ,.>.` 8 z P.P.P.D.D.S.7.] ) 8 h D.,.1.:.V.C.2.<.<.] ",
"7 5.p.( D ] o.;.[ ! - f K.s.>.,.,.,.1.,.g 0 5.] ) ] ] ' ` ) ] t h D.2.o.) >.,.,.] 8 e D.S.D.7.1.1.,.~ ` e z D.>.;.:.6.6.7.-.] ] ",
"8 O.7.] ] o.<.6.2.1.# f E.7.>.-.:.:.2.,.l @ O.) ) ] ] ] ] ) _ u f 4.@.Q ~ o.>.>.[ 6 8 ] ~ ] ;.=.-./ W ` 8 W 2.~ ! ! ;.=.-.~ ` ] ",
"8 Q O.) ( ` O.4.7.2.u 8 s.,.] ;.' ;.;.[ f @ W ) _ _ [ [ ( ( K 8 8 | ] ( ( ] -.[ _ 8 % W S W ! ' ;.` ( ` 8 z ,.~ ~ ! =.` ` ] ] ( ",
"d x z h u u i i u 8 4 5 W ` ( ( ) _ ` ( p @ 7 e f q 6 6 4 3 ; + % 8 7 - 3 * 8 u 8 3 O O + 9 8 8 8 7 8 8 8 d z e 8 8 0 6 6 8 8 e ",
"x k 8 3 * 2 3 4 4 4 3 3 3 9 8 0 u 7 6 6 4 @ @ @ * @ @ @ @ O * 8 d f f 8 % O * % 6 j h j f f e 7 2 5 2 q 5 q 9 % O + 3 3 3 8 s E ",
"].'.'./.U.K.8 8 } 3.5.5.9.K.W.~.8.7 0 3.9.l.l.U.W.5.c O * x.T.~.Q./.~.E.E.p.* x ^.^.^.!.!.!.[.I.r @.Y.d.d.d.z.z.I.~.I.k E ~.'.{.",
"D.k.Z.8.9.} 8 4 I.H.H.k.8.7.,.,.3.f _ ].E.k.k.K.~.K.4.@ K E.H.J.D.D.J.J.H.2.3 x P.P.J.O.~ 7.a.D.S 4.i.f.i.f.f.F.F.D.J.f 3._.3.6.",
"[ ;.[ ;.E ( s 8 8.7.7.,.;.` ( W _ 0 { E.4.( [ 4.3.,._ @ D H.s.a.<.<.a.D.7.K * x F.J.s.) Q D.a.4.f @.w.i.<.t.<.>.7.3.] g 3.3.] [ ",
"} } ;.[ ` ( g 0 5.7.6.6.;.` T W ( 0 %.H.<.3.3.3.o.) ) = Z i.<.2.7.C.C.,.,.( ; j | >.W ) ] | o.| q I X.t.>.<.<.2.Z.4.) u 3.[ [ ,.",
"3.} ;._ ( ' f 0 ] ' ;.=.` T c T ` 6 3.7.O.3.,.1.] L J > r I | 2.D.G.D.7.4.] * h ] ` O.4.,.<.| L 1 S F F ^ ^ o.] ] Q j u } _ ' } ",
";.} } ' ' } 0 s ( W E E E ` ` ( _ 0 ( <.,.;.[ ;. .) P > 1 A F @.a.S.7.7.4.) * h ] Q <.7.7.4. .L w A F G I | ] ) Q Q f 8 D ` ] [ ",
"0 g f 0 0 0 4 0 l k k c E E E ( c 4 u D c c ( l Z m b > : w t i f h x h 8 * * 3 q f u l x S F p % $ $ % q q q 6 6 6 8 8 f g u g ",
"8 8 9 3 4 4 4 8 4 4 4 4 0 8 0 3 3 * 3 * 6 @ @ 4 - < w b b y i u 8 @ + O X O @ * % + O O O $ % $ $ $ $ % 5 5 2 2 O % 2 e 8 8 8 8 ",
"k 8 8 5.k.l.l.x.K.U.K.K.9.f 4 3.k.K.K.x.x.x.x.l.u L b.m.Q.Q./.{.XX4.2 O 9.W.W.W.U.x.l.5.O.* $ A H G S S Q Q D 9 % d D O.,.` c T ",
"_.} c `.`.E.U.E.E.U.K.H.3.g 8 ~.E._._.J.h.8.4.,.j %.W.K.K.H.H.F.D.3.9 8 ].J.J.W.E.l.x.k.p.h 5 R.R.Y.Q.^.`.`.E.z z _.E.E.~.^.b./.",
"' E c _.K.3.;.;.' ( ` _ ' c 6 I.J.Y.J.F.7.] Q ) j [ F.7.2.3.Z.G.P.7.f j 8.] :.,.1.-.~ W ~ q 7 E.F.F.2.a.<.2.<.u d 2.<.S.D.D.4.,.",
"( E h _.H.1.8.Z.7.[ ( ] ' g 0 K.| i.i.p.<.] ` _ p ( o.` ] o.D.L.P.6.0 j O.W ) V.V.:.;.` ) - 8 F.a.S.Z.6.] 4.2.h e <.<.4.4.,.) ) ",
"` c f ~.H.6.6.6.;.` ` [ { g q h.G P | | | o.] ] u l ] Q 2.Z.(.P.G.2.0 j ] Q ] ,.,.;.] Q D * q @.o.S.C.C.~ ` ` f 7 ] ] ` ) P F W ",
"_ j u H.7.[ [ ` ` ' [ [ _ p t $.G J J L ) ] _ ( 0 j ] ] W ( 2.,.[ ) u 8 W D ( ) ,.,.;.o.j % w ) Q V.C.6.] ~ ] l d ~ ) ) F P P L ",
"x g 8 h y p u f f f g g f q t m n M m b y t 0 4 4 4 f u u 6 8 0 6 6 3 ; 6 7 6 7 0 t u 6 - O & Z S ] ` ' T K K 0 d z i n m Z n p ",
"f f f f r 8 8 8 8 e s 8 8 8 y y y y < w 1 i h d 8 8 9 3 @ X * 7 3 8 8 3 e 3 + % 5 , $ X . . o O O O O + * 7 7 7 5 2 ; = 1 < 6 h ",
"/./.{.'.`.`.( * D 4.5.k.H.H.k.z.r.Y t y.y.T./.`.`.`.I.f 2 4.K.!./.^././.W.~.( + ( p.5.h.*.*.*._ 8 O ;.4.4.4.5.7.4.O.L < q j.x.Q.",
"J.E.I.D.Z.8.( @ J.'./.'./.}.}.n.y.t.w z.f.K.T.E.k.<.[ f + K.p.7.4.4.4.8.<.,.j + k.s.F.F.P.E.E.~.K + `.I.K.T.K.Q.W.T.Y.F w ^.J.Y.",
"i.a.7.>.:.2.( 4 I.J.H.8.7.F.a.t.@.) r F.i.F.D.7.;.` =.f O 5.) ] O.3.7.7.<.>.u + s.2.4.7.D.G.<.] x * H.<.,.;.! -.7.7.<.Z i Y.a.a.",
"<.1.1.>.] -.( 4 H.s.4.` o.2.2.<.,.K 8 s.<.<.,.:.=.] ] s + O.W ] 7.7.7.7.) | u + s.<.7.a.Z.D.7.] z % 2.] :.:.:.:.1.7.7.h C J.2.<.",
">.o.-.-.-.;.( 7 5.<.o.@.4.7.2.| ] D 8 s.o.>.;.;.-.` ' g * ] ) 4.7.7.3.3.@.[ u + s.` ] 1.C.C.2.Q j + 4.=.-.;.:.:.[ U _ q x P.>.<.",
">.' o.] [ [ x 8 W O._ <.3.3.;.[ [ K 8 ,.,.-.;.;.;.[ ' u * ` ( 3.3.3.[ 3.3._ u * 4.| ) ) 7.2.o.W h 2 | W ] V.V.6.| V _ 8 d 7.o.,.",
"f h h h j x u 8 u h m c j j x c x f f ] W D f 0 0 6 7 * @ q f u f l g g u 0 4 * D ` F ) ) L K x u 4 D h l l c x m m h 8 7 f r f "
};
