/* XPM */
static char *result[] = {
/* columns rows colors chars-per-pixel */
"64 64 33 1 ",
"  c #0D0C0B",
". c #110E0D",
"X c #12100F",
"o c #151312",
"O c #191615",
"+ c #1B1917",
"@ c #1E1B19",
"# c #211E1C",
"$ c #24211E",
"% c #262321",
"& c #2A2623",
"* c #2D2926",
"= c #2F2B28",
"- c #302A27",
"; c #322D2A",
": c #36312E",
"> c #38332F",
", c #373330",
"< c #3A3532",
"1 c #3E3935",
"2 c #413B37",
"3 c #433D39",
"4 c #47413C",
"5 c #49423E",
"6 c #4C4541",
"7 c #4F4844",
"8 c #524A46",
"9 c #554E49",
"0 c #57504B",
"q c #5A524D",
"w c #5D5650",
"e c #635B55",
"r c #675F59",
/* pixels */
";:;:===*==*&==;,;<45q854$XX2::=#$**=*+ =&*==:,66661,;:,;,1=.#6::",
"&***&*%%%&*&**=;<<455544-..>::%%=;:=*+ =*%*=,116661:;;;=:1=o%7:=",
"OO+@++ooXooo++@@$$$;;-$$O X$&&+#%==%%o oXoO+@$$%=:=$###+#%@o$#oO",
"ooooX.X       oooXooOXX.  OX.o ...o.. Xo. .oOOOooX..XX.Xo..O$Ooo",
"111<,,;=***&**=;;=++><>*$$$->2111,@@*&&=**====,:,:=;=*@$::;::411",
"786631<,:<<,,,<<<<@o58555424555561o+6341<,<<361:::,1<,X#80877000",
"6111,==&&**%&%&&==+X5>**--$$:<<:** o1=**%%*:,*$##$%%%=.#88544544",
"<<<<,;==**=*=*%&*$OX4>;;--$-:<<:**X+3&%&%$**@@++@$%&*=o#77414554",
"<,,,;;=&*&=,,,*%$$oo1::;=&%*=::=**X+1*%%%=%++++#%&%&;;o#444>2451",
",;,,,:;=&=,1461,=$.o2==*&&*&***;:=X@<*%%==+++@%**&&;;=o+44<>111>",
";;;,11:;<1367611,&Xo2>>=&=;%**=:,* @1%%*=$o+$*=;;;=&;=Xo41:=;:::",
";,;14,;,1677861,:=.X221;**:*=*=,=% +1%%=*+O#=,<,;*&&&&oo1:=&==;;",
"$$#&=$@%=<<;***$$@..44,:=::,;*===% O@+#$+o+#%%@@+++++@ X##@@#@#@",
"       XoooXX...   o941,*341;&%&=% X     .XXX XXX      o  .     ",
"o$&&%%=,,,,;;=%$$=@@941::731;*&&*&Xo*========*&%%$$$&====&=&&$# ",
"o3611140w09743<,:4#+941:1641;=&&*%Xo11136678676133,12133666644,X",
"o3;&;,365431:=;-:2@@542;241,:;=&*&XX2**;<333111;;=&&=;;,:;;=;== ",
"o1,%*;1111,;**;;:2$@q4:-,11,;,;==*OO3=-;<33431;*:;===;,;;====%% ",
"o,=$%=,=:;=&$$$*>4@$54;-;>1,1>1,=*XO5;=,<23311**;;====;==%%&&%# ",
"o%#ooO+@@#+XX.ooO$XO2+OO+###@#&@@+ O%oO@#&&%%@OO@O@OO++@+O+@@OO ",
"+...o..    .XXoooOXo.XX.oo++OO@OXXX+OXOOOOOoo XooXXX.           ",
",,,,&%$&==;=%X@;>::->>>-;>11<<12<;==;*&*;:<:&*$O,431<;;=%&&=&=:;",
";,:==*==,,,,$ #114444554>485444551<11,::,11:<6%X131<<,<,**;;=;:;",
"**&%%*==*==;$ %1::<<>;;**>553>:;**&&&%%%*=&&*=#.<<,,,,,;&*==&&=:",
"**%&&;;;*=;=$X&4<41>:**$=,2442<:&%$$%%%**&***-#.<2><2>;;:;;***;-",
"&&&*;,,;===&#o;6221:*&&%::;:>>:;&%$&&&=&&&%&&*#o3322:;><<;****;=",
"=&&=:<<,:=&=#O,81>:=***$:=**;***%%$**=;;--*$%*%#53>>>2331=&**;;*",
"&%%&;,::=&%=#X*4:;=&===$***$$&*$%%$%=;,12>;&&&@@<>>>2>>>=$%%%%%*",
".   .XX.XoXooX#%@+@#@@OO@$#@+@@+#+oO##%%$$$$#O.O#o+#+O++ooXooXo.",
"O.oo+@Oo.  XoO@X.XXX.     .ooooo.oX.XOOXoXo. .X#$##+OOOoo   .XOO",
"@=,<464<,===;=%%:3553::::==;@+$=-;:-;21<22>;;>2583&>21<<;;:;:,<$",
"o44146764131;#@*14783,,11134$o1433636797585558qrr2+<94211132234O",
"o1:=-:>::=*@@@$*:<1<=*:31<<<$X<1---;;,;;;,->269w3# 2922---->>>2O",
".1:=;-;>,&@@%*=:,<<<=,43<,16%o<1*---;;;=-;<36ww:#X 252---$&&-*&o",
"o3<::=>21$#&*=:,,<1,=24<==,<#o,1***;;;;=:<3309;#+X Oo...    ... ",
"O4>:=:>3:+%=:<1<1<<;*<1,**==@X,1*-;;,<<-<3383##### #--$#O#o##$$O",
"O41:>225:$&-:<1<,,=*;,<,**=*+X14<;,<,11,239,OXO@-&.;9533,::<<3>.",
".###;558:$=-=<<:,=*=,,,;****+X66<131211<26,OXO+%-&.-932&&%$%&%%.",
" ##@#&11-$=-;;:=**=:<,,*&***#O8723331<113,oXo+%*-#X292&&%##%-##.",
"X&%####$$$==;-*-==:11,:**=;;$+9913111<12;OXX+$&=-# -32%&%$%%-*# ",
".OXo+OOoXooXoO+#$@$&%$$O+@$#o+67<;=;;;,:o.oO#&;,,# =4:=&-&&$--$.",
"XX     .XXX  X  XoXoOOXXX  XX#66;==;;-;#..o@&=;,,# =3;*=-&&&;*$.",
" #$#$$#%$&$$$X$=;::122>:*##$#+66-;,::>;o.o@%=;,,<# =1=&&&$$&-&$o",
" 13421312242$X$09q80wrq86111+ 11:,,,;,%Xo@#&=,1<,% *<&%%$#&--**o",
" 4>&%==*&::;$ $511<<<12>::;;@X23,>,;;,OoO#*;<231<$ &1*%&**-2>--O",
"X4<&$;=*:<>-+ #4<;<<:111<,;,@X,3;;;=;;OO@*;:1131<# ;3;;=-->222>#",
"X4>-$-;=:2>=$ @4:=:<<;221,,,$X,1-*==:=++%;,<<331<% ,3::-->22222#",
"X4<;$$==:4::$ #2:=;>>&::,,,,@X,1=**=;*+@-<<>1<<,,% ,3:>;;>>222>#",
"X32-$$&-1>::$X#1=&==%,,==,,,+.,,***:>%+$;>>;->;-=% :2::-><<<<2<#",
"+-$#oXX+++++XX+$OXoOooO@O###o.,*@++$$+XX+$$##$##$o +O##+$#+++#$o",
"#XX        XXXoX   .oooX.  . o.         . ..        .. ...XX..X.",
"---$$$XO$&=;=&%$#oO$#$$$$$##%%#$&=*%$$#+##Xo####+%@%$$#$%;;>;;::",
"43444$ O3<3331111@@61<,,1223334788063<>:;-.O2;>>=:<<21<31>>23134",
";$-:>$ O1;:;*:,,,#+6;&&%$%&&*,367761;$$$$$.X2$$$$*;--&-;-;-;>---",
";-&;:$ O3;:==,111%@6<=&&*&&*=,46761,;%%%*$..2$-$&:,<>>:;:::::;-;",
"-;$&&$ O3;;=:<131$@61;&&%&&=;146311=%%%*;& X2$&&=:1122>>><11::;-",
"OO.oo  o@oo++#@@+.+#@+ooooOO#$%$$@@ooOoooX   .Xoo#####+++++++##+",
"  ..   oo+OooOOO+@+..  .      XOoX  XXX         .. .XoOOO+#OoXX.",
",,,,;,<331,:;:;:,,,,;:,,=OO$**=,,:=;;Oo=2>>;--;:>::;;;>>:1>o&232",
"33113146675211111111<111, O1,,,<<<,=% +63;;;&-->>>>>>>2246;.&q55",
":;&%&=;=,;;&**&=*==;,111*..=%%****+%=O+3>&&$%%&---&&&;;-;:% $q>>",
"&=&%&=,;;;;&&&&=**;,1361=X.,%%$$$++&=++32------2>:;;-:>;;:% $5;-",
"=*&&*;;;-;;&&=&=;;;17961;XX<**@Oo+$&=+o12->---23222::>>;>:% $4;-",
"====*;;;;;=====;;,169w66;XX<==*O#%&&*O ,>----2555322::::<<* #4;;"
};
