/* XPM */
static char *result[] = {
/* columns rows colors chars-per-pixel */
"64 64 99 2 ",
"   c #2B2726",
".  c #27292D",
"X  c #2E2C2F",
"o  c #2E2E33",
"O  c #2F3035",
"+  c #323134",
"@  c #393636",
"#  c #35353A",
"$  c #38373A",
"%  c #3B3A3D",
"&  c #443E3D",
"*  c #3D3D42",
"=  c #413F42",
"-  c #3F4045",
";  c #434245",
":  c #484546",
">  c #4E4847",
",  c #45454A",
"<  c #49464B",
"1  c #47494E",
"2  c #4C4A4D",
"3  c #504748",
"4  c #514C4E",
"5  c #54504F",
"6  c #4D4C52",
"7  c #524E53",
"8  c #504F59",
"9  c #4E5155",
"0  c #4E525A",
"q  c #545155",
"w  c #5A5456",
"e  c #55545A",
"r  c #5A555B",
"t  c #57585D",
"y  c #5C595E",
"u  c #605856",
"i  c #60575E",
"p  c #635B5E",
"a  c #685E5E",
"s  c #65605F",
"d  c #6A615F",
"f  c #575660",
"g  c #5B5761",
"h  c #575961",
"j  c #5D5B62",
"k  c #5D5D69",
"l  c #625760",
"z  c #635D63",
"x  c #695E64",
"c  c #625E69",
"v  c #5E6166",
"b  c #5E616A",
"n  c #656165",
"m  c #6B6365",
"M  c #6E6866",
"N  c #65636A",
"B  c #6B656A",
"V  c #66696C",
"C  c #6C696C",
"Z  c #706666",
"A  c #716867",
"S  c #71676A",
"D  c #726A6C",
"F  c #786F6F",
"G  c #78706E",
"H  c #646471",
"J  c #6C6771",
"K  c #666A72",
"L  c #6C6B72",
"P  c #6D6F79",
"I  c #736E72",
"U  c #786E71",
"Y  c #6E7177",
"T  c #757175",
"R  c #7A7374",
"E  c #7E7A77",
"W  c #74747B",
"Q  c #7A757A",
"!  c #7C797D",
"~  c #817776",
"^  c #807877",
"/  c #81777B",
"(  c #837B7D",
")  c #757681",
"_  c #797780",
"`  c #7E7C82",
"'  c #827D82",
"]  c #7D8085",
"[  c #7F8288",
"{  c #848185",
"}  c #898385",
"|  c #8B8987",
" . c #84848A",
".. c #8A8689",
"X. c #8D8A8D",
"o. c #928C8E",
"O. c #8B8B92",
"+. c #918F92",
"@. c #949295",
/* pixels */
"C | @.@.o.X. .} ..X.@.@.o.} ' ' } } } ( | o.z M m r m N I G F M T W L m m z c n f P I W ! V ..o.o.| { I U ( ' X...o.o.} ..} o.@.",
"w D D R Q R T T W C p n n p p p d Z d d m G z M z z d m M G D T L L Y C B N N L L I J V W j N z m c y t 7 r D S m z M R B M F / ",
"w B D R Q Q ` Q T n p z p p p u a d d m m M q B p z d d m A D N V N C I V V n H V c z N T q m m m M y r e q z n n m m z D T D D ",
"w M T R E Q W K k t z j z a p a a Z Z Z M M 9 M m M p a a m n p z m N V B B C D m z N B I q m m m D W L j j v n n n p M Y M D T ",
"r M F ~ R Q T j t g j j c a a d Z Z Z Z Z D q V N x p u a m n n e r l x J ' ' B m z S Z U w M m m m T K ) ) b h t z D A A M S M ",
"< M R ~ R D ! V j i z y n n m M m Z Z Z Z D r m z x d p p m D N x r r z x D x x z m m Z F 4 m Z m m C T ) _ _ I R D m n M N B T ",
"2 D ~ R R D I V n z z z n M M M B D Z Z m Z q p z x m d m D D L c m J U D x l x x B m Z C 4 M m d A M E T S D S M a n e L ! I B ",
"y F ~ ~ R S z e c x z z j n n V B M m m m n 4 N m m d m m D C T I I U U B x l x m M Z x m q d m G G A A M I m z r c W W b j p B ",
"7 A U R R U n z B m m x z z n M C m m x m n 4 M M M m d x B L L J D S Z M z z m M A M x C 7 m D R R F x m R { ! Y c j h t e y C ",
"7 m Z D U I V S U S z x z p p n V B Z m m I w n n s w w w p j z r 7 w i w 5 4 w s m m m p > M z z z p q q 4 e y z 8 1 2 6 t n r ",
"7 i z Z I J V I U J x z p i z n V B m m m C q y y p e e y y j t e e w w 2 4 4 q r j z y r 0 e q 8 8 0 8 2 1 , 6 6 6 6 0 9 t y e ",
"7 i a B I N J I I J c z z y z m m S S B S S j ( { | X...{ }  .' R Q E ! s ' ! { { ..o.| { ` ` [  . .'  . .{ [ ....X.' ` { ! ( X.",
"4 a x Z n q N J N N c n c y l x m m m m m m 7 S A D F I W I I C p s p p p m F M S A D D A F W R Q T L V T T ( } ' ' R m m p x D ",
"5 Z a 7 1 t c N N N n N n y x z x c z m N y = n m G G I I C M z m d d s w m M T C j m S U R ! ' ( W K 0 V T E ( ( ( ( m n q w C ",
"q C q 6 t g j c c N V n n c z m x m N n B M : p m M T I M C q y m d M t 2 n n d C e 6 q r q k J W P K k ; y T R / ( { L j w q C ",
"e N e h k j g c b N N n m n N m m z m n M D < r a M M M z 7 e z n n m v , v n s n e 6 8 y e 8 q g N k f q y B D R / T n N y r I ",
"q I j v k j j c c n N V B N N n m m m m m I w z a m M z y z z y z n m V 1 b b N V q p m z x z z c j e r 7 B S I T C q t V z n M ",
"q N n N b v z z N m M M B C N m m m x Z m S w x z z j w y M B n n m m M q b b v V j p F z m T J c q 2 p 8 C J I W t w p m p a T ",
"6 T ! W ) W ! ' R D D M L V m m m x Z Z m S 7 z p z q w m S S S M S Z m q j b c n C n n R z x c q e z p 8 c N m I Y p m m z a I ",
"2 z v K H N J Q ( ! T C V V N m m m a a Z m 7 x z c m m M Z A Z Z Z M n 6 n j z c v J C x D x m C Q B m c z z c C W z m N S Z C ",
"o ; * o O # $ - 6 r t t 0 # o = 7 q q r w : # w q 1 = < w w y 6 ; q w q 2 m c j j j j J c y B c B M D S Z m x x D W z x M B Z S ",
"q r e e e 0 q e e r y t j e t r r t j j c q 0 7 q h e r y j z j j j n q 8 V n n v n z j J B J N z p z m Z Z m x m C N m M z x M ",
"y N V V N N z c m B I Q J B V V B N m L _ { [ W J C m N N C B J C I R W r V m N c x x c z c x B t j c z x M n q 6 1 z z w w z m ",
"p n j j k z z z x x m Z S S n b k k h j N D D S x l j y y p k N K W C C 8 m c N m c x x c x J J j r r r r j t 6 7 z z c w 7 a T ",
"y z t j v v p n m m Z Z S S B k k h t t l x Z m m x i y i p j j W W J N > M z n n z x x c c x c B e q e r g j y z z r g e p m T ",
"w z y j t p n m M B B M S D B N j f g q g x Z m M m x i i a z 8 C I D M ; m m n n N x c z z z z z J e 0 e g B m m z z g z m m M ",
"e j n j j v c N V C B m x J B N m z y r l x Z S Z m m x x x c l C I C V 7 m x x n n c z z l c j j z W L Y ' T B m m m J m c N V ",
"e n n v j j t c N n z m x x m m c x x l l x m B S Z S m x x z C R T I j 2 m x m z j z c z z j g g f e f t g T L D S D D V y c n ",
"w n v v j j j z z z z z l z B C C m m x a z M C S S D S m x p ! R R R t 7 x x x z j c c g z l g f 8 8 0 0 e k J B D F D I N C L ",
"t V n v v j y g l z z l z x D I I S m x a a M N C D D S Z x z ' R R Q z w x m x n n j z j c z c g f e t f g r z S M M B B M C C ",
"p D M n p y p z l l z l z x S U R T F m z x m J V V x m M n D ^ R R Q P 4 m Z m n n n m n n x m x c z j l z z z x m m m M M M V ",
"p C M M m m n p z l z x a x S I U R T D x z N N N L W _ _ I R R R T I N X 2 3 * ; > 2 % ; , = < = = < < = < 2 2 , . $ , , > 2 ; ",
"w D D D A m m p x z l z i g z S D I R I m Y Q W W Q ! ! ' ' U I G C J n 1 V ) ` ' _ _ ' ..t ' ' ......` _ ` y L ! | +...' ' ' +.",
"2 B I D D m m z z x z l r e w z m S U S j L ' _ T D U U m Z D I L L J b 6 C W L m m n N M q C Q R R W D c c 7 C I D I m m C C J ",
"2 M B D A Z m x a a a l r 7 8 w x m m c g b N V c x c N c g j c V N N j 8 I Z x a x a x m 6 S U / Q / R I m 2 n D C v 1 1 8 y N ",
"c ! E Z D F S m m z z l r 8 8 q g c c J L N N B J D B c c j g j j j k j q m Z m m m x x N 6 V I ( ' { ! Q I 7 V J C t h t q p M ",
"> m Q C B D Z x m m x z y r q 7 w l Q ` J j c B J S J J x c c c j j n z * p m m x m m x C ; N J W '  .[ W W q m n n 0 j h r y N ",
"q p N D B B B B m S N m N z y w r 8 V J k g z B J S c J c c c z c c n c = c Z m m m m m D * 8 g C T `  .{ ` 9 m n q v N N z p M ",
"w w z I R R C m m C D C N m z y p j c g f f g k c k c c z k z z z n c N < z x m m m m m C 8 q : 7 C Q ..[ [ t D M t C L L m M m ",
"u p i z J ' ` Q T U Q W P J V T Q J r e t t g g k k k g k k k k z c c m 2 C c S B N m M M o j r 1 t I '  . .0 T I y N N C M M N ",
"w x p r r z Q ` ! ( ` ` P C L C N t t r g j g g h h h k k g j z z x m m e M M m Z M m m C $ y g 2 8 n Q ` { 8 C G y m B B M x D ",
"5 M z r , = 8 r t e e e 6 0 e q q r r t q e 8 t f h h h h j z k z x z w > j p z x p x z j $ M m e , 1 z ! ` q I R y z m m d m I ",
"q y z w % , 6 q 7 e e w 6 0 q 0 e e 6 6 0 1 % 8 e e 0 6 e r e e e r w 8 1 e 7 8 e e w r q % S S M n 2 , V W q R ( V v y x Z A I ",
"( / ! / q W ..+.@.X.o.o. .' Q ! ` ' { { ' { r ! { O.O.O.O.O.O.[ Q ! ` ! Q ' ..{ ` ' ' ' ..: M B C N j : j I t ! E T v s Z D A D ",
"i u p m w W ' ..| ( ( ( T z x m m m Z m d C e C L W O. .W I C z z z n x x z x m x B x x D < M N N c c 6 6 L 6 H ! T t n x m M m ",
"M m n z < T ( ' ( } ( ( C z c z B m B D M M 0 L T W W W L N v n B m m m x m m m m x J U ( 2 z c N k j 2 r J 8 N W ! r n z x B D ",
"M M M n = D R ^ ^ ( ( ` t n z c x B C C S B , N W ! W V N v c B D U S S D Z m m c Q ' ' T 6 z g f j g = j B 8 H P [ q v z z m J ",
"C N n m 7 M F G R E ( ! h n z c c N M B B B 2 h L L L t e j n c x A S S D D m x w S R T Y 7 x z g l z r 6 N e H K W q j g y z V ",
"n y y a q x Z F R ~ Q R V m c c z z m B N m 1 g z c N q q z z z z m C m x x z B m B I P K q V N c z z a 6 J 8 H H I N N z z y m ",
"z y y p w m G ^ / R W W W N m z j z z m N m 6 r j h j e n m m z 8 x I W T x x ! R V m N n e m m n m N z , N 6 c H J W ' m z j z ",
"N n m V w N R ( ' ( ! I ) Y V z j l g z z N 2 e 0 t N j N N N z i x B c J Q U B c c n h V q M N C N N M 6 e 1 j k c S R B J C B ",
"T L C m w D R ( ' ' Q W L B m c l g i i z z : z z z j j N m M m z l B N c z z z c j t j N 5 A N M V n n t j = 8 j c x x J I I ` ",
"9 t q * 1 N P Q E ( ) P N n V m z t y j B c = e w 1 6 e h n m C * * 2 e e 9 = ; , , , 2 e $ , < e n q ; , 6 + * 1 * 6 e 6 w 7 e ",
"t n m j , N J T R ! ) W N N V c z z c y x D , r p j j N j n B I t e r c j j e t g y y z t - y n V N j f e h z t y n j p j v n j ",
"{ Q I I = k H B I W W P z V N z c z z z c C q I I W W ' { { ' R Q Q _ ` ! Y I R ! ! Q R ` 4 D I I Q T I R Q { | X.} | } ' ' } ..",
"R D Z M 1 g c c V C L t q V N m z z m z n V 7 N m N C I W T z z z N N N H N t i D U I S D 2 m M N M x S Q / Q ( ( / ( ( / / ( ( ",
"D z r z e g c c c N j < j B C B x m m M N V 2 n N V D R Q N 7 y l z j g k g f , a D D D J < M F R U D U ' ' T T T C M M M U R I ",
"t w a M w l l f j j g 7 t N D N x M M B C C 2 n n V T I W N z m l g g 8 6 8 g 8 4 D D m B % I R / / Q W Q I 6 1 e e 9 , 2 r z m ",
"z D A p 7 l i y f j B y q m B M Z A D F I C 1 n j H Y Y N c m N m c f 6 6 q z y 6 C C N V $ T R R ( / U c z 7 e , - , e r q 8 q ",
"D D D r q i i z l j J Y j z M Z A D M D N C 1 N V b V N j z m M S B c z c m p p e P I V J * D F R U B c z c M J P k e r p n z p ",
"Z A D M 5 i i i r y z M I R S S Z A F m n C q N m j h 0 t j z z z M C D F D B r v Y K V b ; z D D N z f 6 q j C J N j r z m z a ",
"Z Z m S 3 u i i i a z m m D U M x m Z x n V 1 M N m e 6 e y t t z z M M M M A 7 j Y W K b ; r h w < < < > q h V J V V s n d z a ",
"p n z w & p p a a z m m m M D B r 5 a x z n , n M C t n n z t e r j n n c n n q 0 W W K L , e , : z z y m x y j N L I M n M x p ",
"> > 5 %   & 3 3 & + , 2 > 2 : 2 @ @ : 2 : % # p m n z N N B N c z c j z j n c j 9 P W P W % * * : + X % 3 4 ; # O % % 5 q q w 4 "
};
