/* XPM */
static char *result[] = {
/* columns rows colors chars-per-pixel */
"64 64 83 1 ",
"  c #372E37",
". c #382E37",
"X c #392F38",
"o c #3D333C",
"O c #3F383F",
"+ c #40363F",
"@ c #41383E",
"# c #3F3840",
"$ c #413741",
"% c #443B43",
"& c #483E46",
"* c #463C4A",
"= c #493E4A",
"- c #4A4147",
"; c #474048",
": c #4C424B",
"> c #50464E",
", c #52484E",
"< c #4E4550",
"1 c #514751",
"2 c #554B53",
"3 c #584F55",
"4 c #564E58",
"5 c #594F59",
"6 c #5A5156",
"7 c #5D535B",
"8 c #61565D",
"9 c #62595E",
"0 c #5E5761",
"q c #605661",
"w c #655C62",
"e c #685F65",
"r c #665E68",
"t c #695F68",
"y c #6A6166",
"u c #67616A",
"i c #6D636B",
"p c #6F686C",
"a c #71676D",
"s c #72696D",
"d c #6F6774",
"f c #6E6872",
"g c #716770",
"h c #756C73",
"j c #796F75",
"k c #796F78",
"l c #7B7276",
"z c #7D747A",
"x c #817677",
"c c #80767C",
"v c #837A7E",
"b c #887E7F",
"n c #7F7780",
"m c #7F7880",
"M c #817781",
"N c #857C82",
"B c #887F83",
"V c #877F88",
"C c #897F88",
"Z c #878185",
"A c #8B8285",
"S c #878088",
"D c #8D848A",
"F c #8F888D",
"G c #908887",
"H c #90878B",
"J c #938A8D",
"K c #958D92",
"L c #988F94",
"P c #979195",
"I c #9A9295",
"U c #9D9499",
"Y c #9F989D",
"T c #A0979C",
"R c #A2999D",
"E c #A59DA1",
"W c #A89FA4",
"Q c #A6A1A3",
"! c #A9A2A6",
"~ c #ADA4A9",
"^ c #AFA8AB",
"/ c #B1AAAD",
"( c #B4ACB1",
/* pixels */
"jlvDGJGGPUEQ!!!!!~WWERYKFK0OcJDJJJTUUREYJJYIPJP7sNZZcADBzzhha-sl",
"LIUERRQYUIUREQQQEEEEERRY!L9*lLR!!RRRR!!QRUREYYs-pIQYYTEYTERPp-lG",
"KPJPUIIUIIKIIUUUUIULIPLIJDw%jBLUTIILLITEUIUYYPy-7JQTIUYIIIIG9-aG",
"JKGGLPGFJJGJPIUUUTILLLLKPD8%jKUUTILLKLKLJPPJPKy>>bRLKLIIILIPe-aD",
"GAbbAbZzzvZGJPLJJJJLJLLLPD7@lJTYUKABBNcMmZFZGGy3>bUJAvSKLLIJe-sA",
"AGvvzvzhhsszbbbhjjMCHKLLPA7%kAYUIDkgkhhzzZFAGJp7>DTJAzzKIILGe-sG",
"AzlzzzZksjjszbllkczccLLJKA7@kBYIKDghjzzzZFGbZFy3,FTLAlvDIIJJ9-hG",
"xapslzSzljjzlxlhhzkzcCJJDA6%kAELJMkkjNAAAPJZZGy7:GUKzsNKLLJI9>jb",
"zlasskzczzzzzkhfggcjjMGHGD2OzDEICzkzzZZDZFJFGJw7,xLPNlBLLKGL9,cB",
"bbxlzzlhzvvzzkhhghkkxcBBGG,%zDULBzMMzZmZDAFFFF936xLJAcbLLJHKw>cH",
"AAAbbZvzlzzzzkhhhkkckMCBDF3OzJFKZSDSSZSSSFFFFK7:,AUGbvBAHCHJe:sD",
"JJPLUPIJDZNNNDVzckkkcMBNAv3%zJAKFFJFFKPPPPFFAJs-*zsAPABvJULLe:yc",
"22221::-==*=************=10Oci7wuwr0752<;;**::92@1:=&===>1,5j:7w",
",>:>:=-:---===**%%$*%%%$$%%o-%&&%;%*;;*;<;;*;**@o@@%&&%&&%%$O@--",
"&%-::<:=:125:o:7qqrrtitgfftw7533211<::;***## *%@O#%%%&%%&$**%%%%",
"AJLPYW~/(/~Uy$hDLUUUUEEETEEERTITPKKKKJKKFFN7%AR~ERTUTRTTTLAJLKAC",
"LUUTEETERTIl8@lDIIIIIPPIIJTLTTRWQQRQEERRRUy7@sPEQQ!QWEWQEYIIILII",
"ULIIIUULTILh7@jDIIIIIIIUIIIIKGGIIPJJJJGFURy7opYQEYRIUTYTTYULUIII",
"LLUILLIUTTIj8@lbKLKIIUUIIILLIGJKLLKGJDDDJRy8oyYQUIKBCJLILKKJLUIL",
"KLKDCCKUITIj8%lAKLLILLLIITTJGGGKLTUGHBbAAUp7ouIQYUBjhMCCDNccHKIK",
"HKCCMCHLITIj8$hcLIJUJKKTLLTTGAJJGGIGDbANbGy9owUQUICkhMcNNccxCKKJ",
"JCCMMMMHKTTs8$hNLJAPKLIITGGTIJLKIIGGAbAbbAy7owURLJNMzCCCMkkkCKHH",
"HChgaigMDPIa8@gAJbxAGJIKLGJJKTLJJKGGZZZbbGw7oeREIDnMCAHCMkkcNJJH",
"CxigwqicvHKjw@avJsahcxbGLJJJKKILJJJAbZbZbJy7oiRRLHNNCHJJHkkNCJJH",
"MhggttggcCHce%accwtgkkpwtgkvNcMDGHJCNNBBNJy6OyUILDDBAALJKNBAJLJG",
"CMCCcxgjkcMMw$wkziitq0ttipjNzkjNHJJDCAAHAzw3$hLKDBJLKCDJCxkcvCJC",
"23732==51237t&>5<<==;=*:<:=:<==<111111132:33$a71::112<::=&&==->>",
"&&=&========1%$=$%%%%%*%%%%%$#%%%$%%%$$@OO%%o=%%&=--==&==>=->-==",
"&&=&&&==&%==**===::<1;o:44587q05#o<54442114422>>:<:=*%%%##Oo%%**",
"BCCCHCCCJCCCHCCCVNNNz7XzETIUUIUK$<MVBCDVSDDDDDJJDSCNnkkhhh1%hznm",
"HHUTEEEEEETEEETTULKJp3 sJ((/(^Wio5NIIYEEEQEEWWE!EERUKKKDKh,@vUUI",
"CKJLLIIIIIIIIKKILJJAu3 ucULJDDSw$qMLETYEERREUEERRRTUYIEYNw2;zUUL",
"ADLLIUIPUIUIULLLTJLJa6.8xKBccvAy$2cJETTTLLLTITRTTTILLJKUNw3%cRRI",
"vADJLKKDCCCJLLJLITKJa6X5cLcjscB9$2cCETIANbBAGJKJGGGGDDNFDu6@zURT",
"ADDGDDljhgkcBDGJTTTJs2X5cIcjkcAw%2ccTTHcccbbGJLKKbAGANvAGy6@lKTU",
"DADAbAvzghhkcDKJKTIGs3X3vTBxccBy$2ccTIAcBBGKJJJGGvjbNvlbJw6%lJIT",
"GAbAbbbANcjjcBJLJLJG93o2cTvlcxBeO2lcTIbxvBLILJAlNcjjkllbJ93%NPJI",
"DAbvAbbvACbkxAGAGJTK9,X3vUBzNBGiO3xvTJvccvLJJLKcCNclccBbG93&BJAb",
"DFABDAAvlxNbvbGAGbGGa,.2vTAbBvAao2cAELAbcvGGIILbxbxbBABBAw3*BKbA",
"bDAAAbbxjcNNcxvAAGGAa2o3cTJHGGDyo2cATJGBbvAGGGKJAxbbABABA93&NLbG",
"bAbbvxxlzzcNvvvAbAKGj3.3cTAHAAAy@2NDRLGbbbbbCCCBAAbvBACHB96-NKcD",
"bDDbvzllzlzNNvBAAGKIx8X6cPGGbBJy%7ccRTTTTIKKHCGHHGAAbHGADw3-NKvA",
"AHDDbvxbNvzBAJJILJKIl8X9cULHbBGy%qcHTTTTTRRTTTEETTTTTRLJJw2&MLbA",
"yw973336,1:2q987336e96XwckBLAAAy&wAvca51,667000q9w8q8efgal,%vGvv",
">>1:>:;;*=********==>:@,===12>>=$95>>&**--===*==-=::***=*1<#i:--",
"oO@*;;--<====*******&@@&%$%%$%&$@%$$$$$$@@##@@##+oo+##oX+###o$o@",
"1ogPKDADVVCCCCCVNNCNNzNg=1igggddjhkhhkhh1*pfhkkddkkkkkknMMVNNnhi",
"yohK(^^~^WWEWWW~~~~~~(Ra22HETRTETEWEEIUk7-AYDJFFPPUIUUKPIKKKJJJL",
"f*lN!!!QQRRUUUILJJILJGa9,>xJKKKLLKJKLJGw7:lD!RE!WYEEREWTTRRRTLRM",
"d*zA!EQRRTTTUUIITTIILAi92-cKLLLKJJHBCBB96:jARIIIIKKLLLLJKKHABBJM",
"f*cDEETKLLLLLPLJJIITLb992&jHLLLJHCBccvAw3:lbTTIIUIIILLLLLKCBBAJN",
"u%zNEELMDJGGJJJJJKTILbw91%jHILCMkccxlvJ9,:xsTITIUUUILHHGJACBBAJN",
"r%zBEYJnNAAAABbDGJITIGy9,%sAUKCCkcMcvvAw,:lhTPIIPILKACCCAABBBCJN",
"w-zBEIJzvvNZvAbbGGLLLGy9,$jAJJHCBMNHANvw6>llTLIIUIJBNBBMBNCBBDDN",
"0:zMULCczjzAvZbvbbJILKa92@lADDBcxvCGGAAy2:lGKKILPLMkccccNMbNAAKM",
"0;zNLJMkaaslbAAbxGGIIGs92%kHJCNcjxvHGbAy2:lbJJLIKCckkckxccMCDAJC",
"q&zcLCkieeahjcCGBbGJGbs93%kBLHNcccbDGBGi31lvLHJJGvlxkxxlccccBAJM",
"7%zMKBs9teetakcvBbvCAba82=zHHBNNCcbGCbba2>cNTLJABxkljkjjjcjcccCM",
"q*xNGvjiartpajcccccbAAa81>cUGccbDDDBGABi3>xCTKJGvvlljccsjxkczvAc",
"t&xCCvcjhzggskNBxcbBbBa82,cTGBbcbBGBBbG93>cCRJAbbbcxcbbxsscbNcbl",
"w=cBGCCCcccccCBHBBGCBGx62,cTTKAGbbGbGAGi3>cGRTGGJHCvAJABllxxllvl",
"r:czaeeqwqteaetiaisa8we82>citaeassss8>8s,=csweeagaayysae9yyplljj",
"t=r<===>===>==->=>>=>=&,-*1*&>-&>-@->->8>&q&>&>>>&=>-::>&->--@-8",
"$oooX++$%%&%$$$$&$$+X+X.XXXXX+++@+.+...++X+X+++++++@+@@&o@@&@@o@"
};
